<?xml version="1.0" encoding="iso-8859-1"?>
<!-- Generator: Adobe Illustrator 19.1.0, SVG Export Plug-In . SVG Version: 6.00 Build 0)  -->
<svg version="1.1" id="Layer_1" xmlns="http://www.w3.org/2000/svg" xmlns:xlink="http://www.w3.org/1999/xlink" x="0px" y="0px"
	 viewBox="0 0 510 510" style="enable-background:new 0 0 510 510;" xml:space="preserve">
<path style="fill:#C9AB6F;" d="M477.622,509.963H32.182c-17.799,0-32.28-14.48-32.28-32.28V32.242
	c0-17.799,14.48-32.279,32.28-32.279h445.44c17.8,0,32.28,14.48,32.28,32.279v445.44
	C509.902,495.482,495.422,509.963,477.622,509.963z M32.182,9.963c-12.285,0-22.28,9.994-22.28,22.279v445.44
	c0,12.285,9.995,22.28,22.28,22.28h445.44c12.285,0,22.28-9.995,22.28-22.28V32.242c0-12.285-9.995-22.279-22.28-22.279H32.182z"/>
<path style="fill:#8459D8;" d="M156.913,199.57c-49.291,0-89.392-40.229-89.392-89.678c0-49.449,40.101-89.679,89.392-89.679
	s89.392,40.229,89.392,89.679C246.305,159.341,206.204,199.57,156.913,199.57z M156.913,30.214
	c-43.777,0-79.392,35.744-79.392,79.679s35.615,79.678,79.392,79.678s79.392-35.743,79.392-79.678S200.69,30.214,156.913,30.214z"/>
<path style="fill:#8459D8;" d="M156.913,180.639c-38.882,0-70.515-31.736-70.515-70.746s31.633-70.747,70.515-70.747
	s70.515,31.737,70.515,70.747S195.795,180.639,156.913,180.639z M156.913,44.146c-36.125,0-65.515,29.494-65.515,65.747
	s29.39,65.746,65.515,65.746s65.515-29.493,65.515-65.746S193.038,44.146,156.913,44.146z"/>
<path style="fill:#8459D8;" d="M156.913,165.732c-30.691,0-55.66-25.05-55.66-55.84c0-30.791,24.969-55.841,55.66-55.841
	s55.66,25.05,55.66,55.841C212.573,140.683,187.604,165.732,156.913,165.732z M156.913,59.052c-27.934,0-50.66,22.807-50.66,50.841
	c0,28.033,22.726,50.84,50.66,50.84s50.66-22.807,50.66-50.84C207.573,81.858,184.847,59.052,156.913,59.052z"/>
<path style="fill:#8459D8;" d="M156.913,150.06c-22.078,0-40.04-18.019-40.04-40.167s17.962-40.168,40.04-40.168
	s40.04,18.02,40.04,40.168S178.991,150.06,156.913,150.06z M156.913,74.725c-19.321,0-35.04,15.776-35.04,35.168
	s15.719,35.167,35.04,35.167s35.04-15.775,35.04-35.167S176.234,74.725,156.913,74.725z"/>
<path style="fill:#F2DD1C;" d="M378.427,165.577c-9.758,0.001-20.749-1.574-31.855-6.259c-17.9-7.55-31.642-21.252-40.872-40.745
	c-9.387-3.59-15.204-10.77-15.344-19.146c-0.149-9.017,6.156-17.001,16.589-21.191c20.637-36.361,65.689-45.132,99.306-37.768
	c26.82,5.879,44.688,20.827,47.531,39.437C464.708,84.911,467.068,92.02,467.469,96c0.778,7.736-4.116,15.747-13.502,22.251
	c-2.138,19.728-25.404,38.844-55.69,45.224C392.735,164.643,385.947,165.577,378.427,165.577z M383.508,48.047
	c-26.348,0-54.707,10.457-68.669,36.582c-0.597,1.115-1.593,1.963-2.788,2.373c-7.299,2.503-11.78,7.2-11.696,12.259
	c0.076,4.594,3.984,8.52,10.455,10.5c1.378,0.422,2.507,1.418,3.098,2.733c22.28,49.621,68.634,44.075,82.309,41.195
	c26.312-5.543,47.806-22.713,47.911-38.273c0.012-1.714,0.9-3.303,2.355-4.209c7.235-4.51,11.464-9.953,11.036-14.206
	c-0.347-3.45-3.947-6.621-10.138-8.93c-1.855-0.691-3.128-2.412-3.245-4.389c-0.9-15.186-16.612-28.314-40.026-33.446
	C397.606,48.811,390.629,48.047,383.508,48.047z"/>
<path style="fill:#F2DD1C;" d="M438.31,106.69c-1.38,0-2.505-0.964-2.505-2.345S436.919,102,438.3,102h0.01
	c1.381,0,2.5,0.964,2.5,2.345S439.69,106.69,438.31,106.69z"/>
<path style="fill:#F2DD1C;" d="M431.884,119.848c-1.38,0-2.505-1.043-2.505-2.424s1.114-2.424,2.495-2.424h0.01
	c1.381,0,2.5,1.043,2.5,2.424S433.265,119.848,431.884,119.848z"/>
<path style="fill:#F2DD1C;" d="M421.881,132.522c-1.38,0-2.505-0.88-2.505-2.261S420.49,128,421.871,128h0.01
	c1.381,0,2.5,0.88,2.5,2.261S423.262,132.522,421.881,132.522z"/>
<path style="fill:#F2DD1C;" d="M435.989,90.409c-1.38,0-2.505-1.324-2.505-2.705S434.599,85,435.979,85h0.01
	c1.381,0,2.5,1.324,2.5,2.705S437.37,90.409,435.989,90.409z"/>
<path style="fill:#F2DD1C;" d="M396.361,145.809c-1.38,0-2.505-1.023-2.505-2.404s1.114-2.404,2.495-2.404h0.01
	c1.381,0,2.5,1.023,2.5,2.404S397.742,145.809,396.361,145.809z"/>
<path style="fill:#F2DD1C;" d="M410.721,140.991c-1.38,0-2.505-1.115-2.505-2.496S409.33,136,410.711,136h0.01
	c1.381,0,2.5,1.115,2.5,2.496S412.102,140.991,410.721,140.991z"/>
<path style="fill:#F2DD1C;" d="M425.279,105.069c-1.38,0-2.505-1.154-2.505-2.535S423.889,100,425.27,100h0.01
	c1.381,0,2.5,1.154,2.5,2.535S426.66,105.069,425.279,105.069z"/>
<path style="fill:#F2DD1C;" d="M418.68,117.432c-1.38,0-2.505-1.335-2.505-2.716S417.289,112,418.67,112h0.01
	c1.381,0,2.5,1.335,2.5,2.716S420.061,117.432,418.68,117.432z"/>
<path style="fill:#F2DD1C;" d="M409.121,126.824c-1.38,0-2.505-1.031-2.505-2.412S407.73,122,409.111,122h0.01
	c1.381,0,2.5,1.031,2.5,2.412S410.502,126.824,409.121,126.824z"/>
<path style="fill:#87B74F;" d="M159.53,476.968c-0.801,0-1.601-0.009-2.411-0.026c-28.676-0.618-52.824-11.593-67.994-30.902
	c-18.293-23.285-23.2-57.151-14.189-97.938c8.958-40.55,17.792-67.54,28.645-87.513c14.322-26.358,31.87-39.172,53.646-39.172
	c21.765,0,40.122,13.098,54.56,38.928c11.601,20.753,20.943,50.341,27.768,87.942c7.952,43.81,1.741,79.172-17.962,102.263
	C206.821,467.859,185.397,476.966,159.53,476.968z M157.228,231.416c-40.775,0-59.544,60.075-72.526,118.841
	c-8.343,37.768-4.094,68.752,12.289,89.604c13.479,17.157,34.346,26.521,60.346,27.082c23.851,0.513,43.436-7.399,56.65-22.886
	c17.688-20.729,23.128-53.229,15.73-93.986C215.425,271.338,191.037,231.416,157.228,231.416z"/>
<path style="fill:#487F08;" d="M153.773,437.452c-25.74,0-46.68-21.004-46.68-46.821c0-25.818,20.94-46.822,46.68-46.822
	c25.739,0,46.68,21.004,46.68,46.822C200.453,416.448,179.513,437.452,153.773,437.452z M153.773,353.809
	c-20.226,0-36.68,16.519-36.68,36.822s16.455,36.821,36.68,36.821c20.225,0,36.68-16.518,36.68-36.821
	S173.999,353.809,153.773,353.809z"/>
<path style="fill:#5EA30D;" d="M389.591,491.199c-20.329,0-32.311-35.348-40.062-118.195c-0.007-0.077-0.013-0.155-0.016-0.232
	c-0.504-10.803-1.213-20.809-1.898-30.485c-2.574-36.331-4.434-62.582,9.126-77.137c7.067-7.585,17.812-11.272,32.851-11.272
	c13.282,0,23.196,3.702,30.308,11.317c15.912,17.04,13.627,50.381,10.98,88.987c-0.416,6.063-0.846,12.334-1.212,18.646
	c-0.003,0.057-0.007,0.113-0.013,0.17c-3.273,35.51-7.391,62.021-12.585,81.051C410.245,479.047,401.257,491.199,389.591,491.199z
	 M359.496,372.188c3.303,35.261,7.334,61.278,12.324,79.533c7.012,25.648,14.144,29.479,17.771,29.479
	c6.165,0,12.664-10.856,17.831-29.784c5.036-18.447,9.049-44.371,12.268-79.252c0.367-6.336,0.797-12.604,1.213-18.665
	c2.486-36.28,4.635-67.613-8.313-81.479c-5.116-5.479-12.639-8.143-22.998-8.143c-12.11,0-20.463,2.646-25.533,8.089
	c-10.595,11.372-8.864,35.802-6.469,69.614C358.276,351.28,358.987,361.311,359.496,372.188z"/>
<path style="fill:#5EA30D;" d="M389.591,263.878c-2.065,0-3.998-1.289-4.719-3.349c-11.748-33.543-8.405-55.295,9.938-64.649
	c2.46-1.254,5.471-0.277,6.726,2.183s0.277,5.471-2.183,6.726c-13.178,6.722-14.875,24.363-5.043,52.437
	c0.913,2.605-0.46,5.459-3.066,6.371C390.697,263.787,390.139,263.878,389.591,263.878z"/>
<path style="fill:#C9AB6F;" d="M473.871,314.235h-12.557c-8.368,0-15.177-6.809-15.177-15.177v-90.117
	c0-8.368,6.809-15.177,15.177-15.177h12.557c8.368,0,15.177,6.809,15.177,15.177v90.117
	C489.048,307.427,482.239,314.235,473.871,314.235z M461.314,203.765c-2.854,0-5.177,2.322-5.177,5.177v90.117
	c0,2.854,2.322,5.177,5.177,5.177h12.557c2.854,0,5.177-2.322,5.177-5.177v-90.117c0-2.854-2.322-5.177-5.177-5.177H461.314z"/>
<path style="fill:#C9AB6F;" d="M50.969,314.235H38.413c-8.369,0-15.177-6.809-15.177-15.177v-90.117
	c0-8.368,6.808-15.177,15.177-15.177h12.556c8.369,0,15.177,6.809,15.177,15.177v90.117
	C66.146,307.427,59.338,314.235,50.969,314.235z M38.413,203.765c-2.854,0-5.177,2.322-5.177,5.177v90.117
	c0,2.854,2.322,5.177,5.177,5.177h12.556c2.854,0,5.177-2.322,5.177-5.177v-90.117c0-2.854-2.322-5.177-5.177-5.177H38.413z"/>
</svg>
