<?xml version="1.0" encoding="iso-8859-1"?>
<!-- Generator: Adobe Illustrator 19.1.0, SVG Export Plug-In . SVG Version: 6.00 Build 0)  -->
<svg version="1.1" id="Layer_1" xmlns="http://www.w3.org/2000/svg" xmlns:xlink="http://www.w3.org/1999/xlink" x="0px" y="0px"
	 viewBox="0 0 500 151.697" style="enable-background:new 0 0 500 151.697;" xml:space="preserve">
<rect x="60.342" y="63.166" style="fill:#F5F6F4;" width="21.109" height="88.316"/>
<ellipse style="fill:#F5F6F4;" cx="70.596" cy="32.902" rx="36.043" ry="33.116"/>
<path style="fill:#1FB870;" d="M79.443,39.187l0.689,112.295l19.343,0.002l4.557-66.279C171.662,91.251,135.14-13.422,79.443,39.187
	z"/>
<ellipse style="fill:#1FB870;" cx="168.452" cy="48.832" rx="36.043" ry="33.116"/>
<path style="fill:#1FB870;" d="M199.486,39.187l0.689,112.295l19.343,0.002l4.557-66.279
	C291.706,91.251,255.183-13.422,199.486,39.187z"/>
<ellipse style="fill:#1FB870;" cx="288.495" cy="48.832" rx="36.043" ry="33.116"/>
<path style="fill:#1FB870;" d="M459.002,61.607c-6.853-10.349-3.277-24.786,7.987-32.245c11.264-7.459,25.951-5.116,32.804,5.234"/>
<polyline style="fill:#1FB870;" points="399.501,25.908 353.987,88.152 308.473,25.908 "/>
<path style="fill:#1FB870;" d="M414.003,49h36.265c-0.033-8-2.613-14.144-6.968-19.593c-6.56-8.209-17.139-13.614-29.072-13.614
	c-19.906,0-36.043,14.788-36.043,33.078s16.137,33.097,36.043,33.097c8.901,0,16.621-2.421,22.612-6.725L414.003,49z"/>
<g>
	<polygon style="fill:#1FB870;" points="443.839,25 444.245,91.145 463.588,91.131 468.134,25 	"/>
</g>
<path style="fill:#F5F6F4;" d="M61.031,39.187l-0.689,112.295l-19.343,0.002l-4.557-66.279
	C-31.189,91.251,5.334-13.422,61.031,39.187z"/>
</svg>
