<?xml version="1.0" encoding="iso-8859-1"?>
<!-- Generator: Adobe Illustrator 19.1.0, SVG Export Plug-In . SVG Version: 6.00 Build 0)  -->
<svg version="1.1" id="Layer_1" xmlns="http://www.w3.org/2000/svg" xmlns:xlink="http://www.w3.org/1999/xlink" x="0px" y="0px"
	 viewBox="0 0 500 500" style="enable-background:new 0 0 500 500;" xml:space="preserve">
<path style="fill:none;stroke:#F9F9F9;stroke-width:10;stroke-linecap:round;stroke-linejoin:round;" d="M242.51,496H103.239
	c-33.931-88-71.373-175.831-71.373-271.991c10.69-125.158,116.908-208.966,225.916-97.834
	c42.743-50.765,88.137-73.492,120.594-35.172l18.309,17.313c17.168,29.789,19.888,64.598-16.781,108.078
	c-16.325,22.188-50.274,34.691-73.269,26.09C291.853,329.656,271.438,419,242.51,496z"/>
<line style="fill:none;stroke:#F9F9F9;stroke-width:10;stroke-linecap:round;stroke-linejoin:round;" x1="87.318" y1="149.129" x2="77.628" y2="178.181"/>
<line style="fill:none;stroke:#F9F9F9;stroke-width:10;stroke-linecap:round;stroke-linejoin:round;" x1="126.059" y1="139.44" x2="131.588" y2="110.388"/>
<line style="fill:none;stroke:#F9F9F9;stroke-width:10;stroke-linecap:round;stroke-linejoin:round;" x1="111" y1="186" x2="111" y2="211"/>
<line style="fill:none;stroke:#F9F9F9;stroke-width:10;stroke-linecap:round;stroke-linejoin:round;" x1="62" y1="249" x2="62" y2="222"/>
<line style="fill:none;stroke:#F9F9F9;stroke-width:10;stroke-linecap:round;stroke-linejoin:round;" x1="76.978" y1="287.47" x2="77.628" y2="312.361"/>
<line style="fill:none;stroke:#F9F9F9;stroke-width:10;stroke-linecap:round;stroke-linejoin:round;" x1="82.473" y1="351.102" x2="87.318" y2="380.153"/>
<line style="fill:none;stroke:#F9F9F9;stroke-width:10;stroke-linecap:round;stroke-linejoin:round;" x1="105.495" y1="423.79" x2="116.939" y2="456.742"/>
<line style="fill:none;stroke:#F9F9F9;stroke-width:10;stroke-linecap:round;stroke-linejoin:round;" x1="137.117" y1="423.037" x2="131.588" y2="392.599"/>
<line style="fill:none;stroke:#F9F9F9;stroke-width:10;stroke-linecap:round;stroke-linejoin:round;" x1="128.815" y1="351.102" x2="126.059" y2="324.438"/>
<line style="fill:none;stroke:#F9F9F9;stroke-width:10;stroke-linecap:round;stroke-linejoin:round;" x1="120.266" y1="280.448" x2="119.722" y2="252.134"/>
<line style="fill:none;stroke:#F9F9F9;stroke-width:10;stroke-linecap:round;stroke-linejoin:round;" x1="170.908" y1="252.134" x2="169.276" y2="222.275"/>
<line style="fill:none;stroke:#F9F9F9;stroke-width:10;stroke-linecap:round;stroke-linejoin:round;" x1="169.276" y1="187.168" x2="165.467" y2="155.747"/>
<line style="fill:none;stroke:#F9F9F9;stroke-width:10;stroke-linecap:round;stroke-linejoin:round;" x1="169.276" y1="292.964" x2="167.362" y2="324.438"/>
<line style="fill:none;stroke:#F9F9F9;stroke-width:10;stroke-linecap:round;stroke-linejoin:round;" x1="165.467" y1="392.599" x2="167.362" y2="365.636"/>
<line style="fill:none;stroke:#F9F9F9;stroke-width:10;stroke-linecap:round;stroke-linejoin:round;" x1="154" y1="458" x2="154" y2="435"/>
<line style="fill:none;stroke:#F9F9F9;stroke-width:10;stroke-linecap:round;stroke-linejoin:round;" x1="190.516" y1="432.042" x2="195.957" y2="408.994"/>
<line style="fill:none;stroke:#F9F9F9;stroke-width:10;stroke-linecap:round;stroke-linejoin:round;" x1="202.487" y1="373.027" x2="206.858" y2="344.168"/>
<line style="fill:none;stroke:#F9F9F9;stroke-width:10;stroke-linecap:round;stroke-linejoin:round;" x1="214.477" y1="304.409" x2="215.021" y2="266.283"/>
<line style="fill:none;stroke:#F9F9F9;stroke-width:10;stroke-linecap:round;stroke-linejoin:round;" x1="217.742" y1="225.997" x2="215.021" y2="194.944"/>
<line style="fill:none;stroke:#F9F9F9;stroke-width:10;stroke-linecap:round;stroke-linejoin:round;" x1="206.858" y1="149.129" x2="202.487" y2="112.723"/>
<line style="fill:none;stroke:#F9F9F9;stroke-width:10;stroke-linecap:round;stroke-linejoin:round;" x1="240.614" y1="155.747" x2="255.868" y2="189.503"/>
<line style="fill:none;stroke:#F9F9F9;stroke-width:10;stroke-linecap:round;stroke-linejoin:round;" x1="258.589" y1="222.275" x2="261.31" y2="254.311"/>
<line style="fill:none;stroke:#F9F9F9;stroke-width:10;stroke-linecap:round;stroke-linejoin:round;" x1="248.232" y1="329.458" x2="255.868" y2="299.915"/>
<line style="fill:none;stroke:#F9F9F9;stroke-width:10;stroke-linecap:round;stroke-linejoin:round;" x1="243.335" y1="362.67" x2="237.893" y2="392.599"/>
<line style="fill:none;stroke:#F9F9F9;stroke-width:10;stroke-linecap:round;stroke-linejoin:round;" x1="217.742" y1="459.601" x2="224.816" y2="426.39"/>
<line style="fill:none;stroke:#F9F9F9;stroke-width:10;stroke-linecap:round;stroke-linejoin:round;" x1="281.461" y1="163.646" x2="298.875" y2="142.669"/>
<line style="fill:none;stroke:#F9F9F9;stroke-width:10;stroke-linecap:round;stroke-linejoin:round;" x1="290.168" y1="117.899" x2="312.496" y2="103.189"/>
<line style="fill:none;stroke:#F9F9F9;stroke-width:10;stroke-linecap:round;stroke-linejoin:round;" x1="326.118" y1="121.974" x2="353.344" y2="110.388"/>
<line style="fill:none;stroke:#F9F9F9;stroke-width:10;stroke-linecap:round;stroke-linejoin:round;" x1="357.697" y1="144.846" x2="376.216" y2="128.521"/>
<line style="fill:none;stroke:#F9F9F9;stroke-width:10;stroke-linecap:round;stroke-linejoin:round;" x1="355.942" y1="183.517" x2="374.461" y2="163.646"/>
<line style="fill:none;stroke:#F9F9F9;stroke-width:10;stroke-linecap:round;stroke-linejoin:round;" x1="301.332" y1="181.34" x2="323.941" y2="165.858"/>
<line style="fill:none;stroke:#F9F9F9;stroke-width:10;stroke-linecap:round;stroke-linejoin:round;" x1="301.332" y1="214.008" x2="326.118" y2="209.988"/>
<path style="fill:#E54D4C;stroke:#F9F9F9;stroke-width:10;stroke-linecap:round;stroke-linejoin:round;" d="M396.684,107.775
	l67.16-24.362c0-51.46-47.439-85.743-102.268-67.016l16.799,73.524C381.03,101.596,384.725,110.388,396.684,107.775z"/>
</svg>
