<?xml version="1.0" encoding="iso-8859-1"?>
<!-- Generator: Adobe Illustrator 19.1.0, SVG Export Plug-In . SVG Version: 6.00 Build 0)  -->
<svg version="1.1" id="Layer_1" xmlns="http://www.w3.org/2000/svg" xmlns:xlink="http://www.w3.org/1999/xlink" x="0px" y="0px"
	 viewBox="0 0 446.24 500" style="enable-background:new 0 0 446.24 500;" xml:space="preserve">
<path style="fill:none;stroke:#454547;stroke-width:20;stroke-linecap:round;stroke-linejoin:round;" d="M205.764,476H78.209
	C47.132,396,12.84,311.069,12.84,222.999C22.63,108.37,119.913,29.667,219.751,131.45c39.148-46.495,80.723-68.282,110.449-33.186
	l16.768,15.37c15.723,27.283,18.215,58.921-15.37,98.743c-14.952,20.321-46.045,35.542-67.106,27.664
	C250.956,319.88,232.259,406,205.764,476z"/>
<line style="fill:none;stroke:#454547;stroke-width:20;stroke-linecap:round;stroke-linejoin:round;" x1="79.109" y1="178.653" x2="84.173" y2="152.046"/>
<line style="fill:none;stroke:#454547;stroke-width:20;stroke-linecap:round;stroke-linejoin:round;" x1="70.974" y1="221" x2="70.974" y2="256"/>
<line style="fill:none;stroke:#454547;stroke-width:20;stroke-linecap:round;stroke-linejoin:round;" x1="95.091" y1="398.454" x2="91.651" y2="374.145"/>
<line style="fill:none;stroke:#454547;stroke-width:20;stroke-linecap:round;stroke-linejoin:round;" x1="76.175" y1="330.289" x2="73.278" y2="303.591"/>
<line style="fill:none;stroke:#454547;stroke-width:20;stroke-linecap:round;stroke-linejoin:round;" x1="135.186" y1="244.868" x2="133.691" y2="217.521"/>
<line style="fill:none;stroke:#454547;stroke-width:20;stroke-linecap:round;stroke-linejoin:round;" x1="132.018" y1="172.472" x2="131.875" y2="143.484"/>
<line style="fill:none;stroke:#454547;stroke-width:20;stroke-linecap:round;stroke-linejoin:round;" x1="136.936" y1="282.263" x2="138.693" y2="311.089"/>
<line style="fill:none;stroke:#454547;stroke-width:20;stroke-linecap:round;stroke-linejoin:round;" x1="139.73" y1="373.529" x2="138.41" y2="348.809"/>
<line style="fill:none;stroke:#454547;stroke-width:20;stroke-linecap:round;stroke-linejoin:round;" x1="139.974" y1="435" x2="139.974" y2="414"/>
<line style="fill:none;stroke:#454547;stroke-width:20;stroke-linecap:round;stroke-linejoin:round;" x1="188.108" y1="382.59" x2="192.111" y2="356.16"/>
<line style="fill:none;stroke:#454547;stroke-width:20;stroke-linecap:round;stroke-linejoin:round;" x1="197.089" y1="307.745" x2="197.587" y2="272.826"/>
<line style="fill:none;stroke:#454547;stroke-width:20;stroke-linecap:round;stroke-linejoin:round;" x1="198.079" y1="230.929" x2="195.587" y2="202.489"/>
<line style="fill:none;stroke:#454547;stroke-width:20;stroke-linecap:round;stroke-linejoin:round;" x1="183.893" y1="164.735" x2="169.07" y2="136.935"/>
<line style="fill:none;stroke:#454547;stroke-width:20;stroke-linecap:round;stroke-linejoin:round;" x1="241.439" y1="163.823" x2="257.387" y2="144.611"/>
<line style="fill:none;stroke:#454547;stroke-width:20;stroke-linecap:round;stroke-linejoin:round;" x1="282.339" y1="125.657" x2="307.274" y2="115.046"/>
<line style="fill:none;stroke:#454547;stroke-width:20;stroke-linecap:round;stroke-linejoin:round;" x1="306.261" y1="148.605" x2="323.223" y2="133.653"/>
<line style="fill:none;stroke:#454547;stroke-width:20;stroke-linecap:round;stroke-linejoin:round;" x1="309.654" y1="182.023" x2="326.615" y2="163.823"/>
<line style="fill:none;stroke:#454547;stroke-width:20;stroke-linecap:round;stroke-linejoin:round;" x1="259.638" y1="180.029" x2="280.345" y2="165.849"/>
<line style="fill:none;stroke:#454547;stroke-width:20;stroke-linecap:round;stroke-linejoin:round;" x1="259.638" y1="209.948" x2="282.339" y2="206.267"/>
<path style="fill:#E54D4C;stroke:#454547;stroke-width:20;stroke-linecap:round;stroke-linejoin:round;" d="M346.969,112.652
	l61.511-22.313c0-47.131-43.449-78.53-93.665-61.378L330.2,96.3C332.631,106.993,336.015,115.046,346.969,112.652z"/>
</svg>
