<?xml version="1.0" encoding="iso-8859-1"?>
<!-- Generator: Adobe Illustrator 19.1.0, SVG Export Plug-In . SVG Version: 6.00 Build 0)  -->
<svg version="1.1" id="Layer_1" xmlns="http://www.w3.org/2000/svg" xmlns:xlink="http://www.w3.org/1999/xlink" x="0px" y="0px"
	 viewBox="0 0 446.24 500" style="enable-background:new 0 0 446.24 500;" xml:space="preserve">
<path style="fill:none;stroke:#454547;stroke-width:10;stroke-linecap:round;stroke-linejoin:round;" d="M217.484,496H78.213
	C44.282,408,6.84,320.169,6.84,224.009C17.53,98.852,123.747,15.043,232.756,126.176c42.743-50.765,88.137-73.492,120.594-35.172
	l18.309,17.313c17.168,29.789,19.888,64.598-16.781,108.078c-16.325,22.188-50.274,34.691-73.269,26.09
	C266.827,329.656,246.412,419,217.484,496z"/>
<line style="fill:none;stroke:#454547;stroke-width:10;stroke-linecap:round;stroke-linejoin:round;" x1="62.292" y1="149.129" x2="52.602" y2="178.181"/>
<line style="fill:none;stroke:#454547;stroke-width:10;stroke-linecap:round;stroke-linejoin:round;" x1="101.033" y1="139.44" x2="106.562" y2="110.388"/>
<line style="fill:none;stroke:#454547;stroke-width:10;stroke-linecap:round;stroke-linejoin:round;" x1="85.974" y1="186" x2="85.974" y2="211"/>
<line style="fill:none;stroke:#454547;stroke-width:10;stroke-linecap:round;stroke-linejoin:round;" x1="36.974" y1="249" x2="36.974" y2="222"/>
<line style="fill:none;stroke:#454547;stroke-width:10;stroke-linecap:round;stroke-linejoin:round;" x1="51.953" y1="287.47" x2="52.602" y2="312.361"/>
<line style="fill:none;stroke:#454547;stroke-width:10;stroke-linecap:round;stroke-linejoin:round;" x1="57.447" y1="351.102" x2="62.292" y2="380.153"/>
<line style="fill:none;stroke:#454547;stroke-width:10;stroke-linecap:round;stroke-linejoin:round;" x1="80.469" y1="423.79" x2="91.913" y2="456.742"/>
<line style="fill:none;stroke:#454547;stroke-width:10;stroke-linecap:round;stroke-linejoin:round;" x1="112.091" y1="423.037" x2="106.562" y2="392.599"/>
<line style="fill:none;stroke:#454547;stroke-width:10;stroke-linecap:round;stroke-linejoin:round;" x1="103.789" y1="351.102" x2="101.033" y2="324.438"/>
<line style="fill:none;stroke:#454547;stroke-width:10;stroke-linecap:round;stroke-linejoin:round;" x1="95.24" y1="280.448" x2="94.696" y2="252.134"/>
<line style="fill:none;stroke:#454547;stroke-width:10;stroke-linecap:round;stroke-linejoin:round;" x1="145.882" y1="252.134" x2="144.25" y2="222.275"/>
<line style="fill:none;stroke:#454547;stroke-width:10;stroke-linecap:round;stroke-linejoin:round;" x1="144.25" y1="187.168" x2="140.441" y2="155.747"/>
<line style="fill:none;stroke:#454547;stroke-width:10;stroke-linecap:round;stroke-linejoin:round;" x1="144.25" y1="292.964" x2="142.336" y2="324.438"/>
<line style="fill:none;stroke:#454547;stroke-width:10;stroke-linecap:round;stroke-linejoin:round;" x1="140.441" y1="392.599" x2="142.336" y2="365.636"/>
<line style="fill:none;stroke:#454547;stroke-width:10;stroke-linecap:round;stroke-linejoin:round;" x1="128.974" y1="458" x2="128.974" y2="435"/>
<line style="fill:none;stroke:#454547;stroke-width:10;stroke-linecap:round;stroke-linejoin:round;" x1="165.49" y1="432.042" x2="170.931" y2="408.994"/>
<line style="fill:none;stroke:#454547;stroke-width:10;stroke-linecap:round;stroke-linejoin:round;" x1="177.461" y1="373.027" x2="181.832" y2="344.168"/>
<line style="fill:none;stroke:#454547;stroke-width:10;stroke-linecap:round;stroke-linejoin:round;" x1="189.451" y1="304.409" x2="189.995" y2="266.283"/>
<line style="fill:none;stroke:#454547;stroke-width:10;stroke-linecap:round;stroke-linejoin:round;" x1="192.716" y1="225.997" x2="189.995" y2="194.944"/>
<line style="fill:none;stroke:#454547;stroke-width:10;stroke-linecap:round;stroke-linejoin:round;" x1="181.832" y1="149.129" x2="177.461" y2="112.723"/>
<line style="fill:none;stroke:#454547;stroke-width:10;stroke-linecap:round;stroke-linejoin:round;" x1="215.588" y1="155.747" x2="230.842" y2="189.503"/>
<line style="fill:none;stroke:#454547;stroke-width:10;stroke-linecap:round;stroke-linejoin:round;" x1="233.563" y1="222.275" x2="236.284" y2="254.311"/>
<line style="fill:none;stroke:#454547;stroke-width:10;stroke-linecap:round;stroke-linejoin:round;" x1="223.206" y1="329.458" x2="230.842" y2="299.915"/>
<line style="fill:none;stroke:#454547;stroke-width:10;stroke-linecap:round;stroke-linejoin:round;" x1="218.309" y1="362.67" x2="212.867" y2="392.599"/>
<line style="fill:none;stroke:#454547;stroke-width:10;stroke-linecap:round;stroke-linejoin:round;" x1="192.716" y1="459.601" x2="199.79" y2="426.39"/>
<line style="fill:none;stroke:#454547;stroke-width:10;stroke-linecap:round;stroke-linejoin:round;" x1="256.436" y1="163.646" x2="273.849" y2="142.669"/>
<line style="fill:none;stroke:#454547;stroke-width:10;stroke-linecap:round;stroke-linejoin:round;" x1="265.142" y1="117.899" x2="287.47" y2="103.189"/>
<line style="fill:none;stroke:#454547;stroke-width:10;stroke-linecap:round;stroke-linejoin:round;" x1="301.092" y1="121.974" x2="328.318" y2="110.388"/>
<line style="fill:none;stroke:#454547;stroke-width:10;stroke-linecap:round;stroke-linejoin:round;" x1="332.671" y1="144.846" x2="351.19" y2="128.521"/>
<line style="fill:none;stroke:#454547;stroke-width:10;stroke-linecap:round;stroke-linejoin:round;" x1="330.916" y1="183.517" x2="349.435" y2="163.646"/>
<line style="fill:none;stroke:#454547;stroke-width:10;stroke-linecap:round;stroke-linejoin:round;" x1="276.306" y1="181.34" x2="298.915" y2="165.858"/>
<line style="fill:none;stroke:#454547;stroke-width:10;stroke-linecap:round;stroke-linejoin:round;" x1="276.306" y1="214.008" x2="301.092" y2="209.988"/>
<path style="fill:#E54D4C;stroke:#454547;stroke-width:10;stroke-linecap:round;stroke-linejoin:round;" d="M371.658,107.775
	l67.16-24.362c0-51.46-47.439-85.743-102.268-67.016l16.799,73.524C356.004,101.596,359.699,110.388,371.658,107.775z"/>
</svg>
