<?xml version="1.0" encoding="iso-8859-1"?>
<!-- Generator: Adobe Illustrator 19.1.0, SVG Export Plug-In . SVG Version: 6.00 Build 0)  -->
<svg version="1.1" id="Layer_1" xmlns="http://www.w3.org/2000/svg" xmlns:xlink="http://www.w3.org/1999/xlink" x="0px" y="0px"
	 viewBox="0 0 100 100" style="enable-background:new 0 0 100 100;" xml:space="preserve">
<circle style="fill:#E46744;" cx="50" cy="50" r="50"/>
<g>
	<path style="fill:#2A3137;" d="M31.235,25.748c0.181,0.19,0.271,0.486,0.271,0.886s-0.195,0.688-0.586,0.864
		c-0.664,0.293-1.016,0.479-1.055,0.557c-0.117,0.225-0.176,0.586-0.176,1.084l0.015,0.381c0.029,0.4,0.044,0.693,0.044,0.879
		c0,0.635-0.161,1.255-0.483,1.86c-0.879,1.68-2.5,2.661-4.863,2.944c-1.045,0.127-1.587,0.195-1.626,0.205
		c-0.615,0.205-0.923,0.513-0.923,0.923c0,0.361,0.195,0.608,0.586,0.74s1.472,0.256,3.245,0.374s2.969,0.342,3.589,0.674
		s1.069,0.715,1.348,1.15s0.417,1.042,0.417,1.824s-0.225,1.494-0.674,2.139c-0.918,1.318-2.363,2.251-4.336,2.798
		c-0.977,0.273-1.992,0.41-3.047,0.41h-0.454c-1.797,0-3.171-0.334-4.124-1.003s-1.428-1.487-1.428-2.454
		c0-0.645,0.21-1.26,0.63-1.846c0.078-0.107,0.286-0.347,0.623-0.718s0.505-0.654,0.505-0.85c0-0.02-0.176-0.276-0.527-0.769
		s-0.527-0.989-0.527-1.487s0.264-1.089,0.791-1.772s0.791-1.069,0.791-1.157s-0.259-0.415-0.776-0.981
		c-0.508-0.586-0.879-1.299-1.113-2.139c-0.078-0.283-0.117-0.576-0.117-0.879c0-0.029,0-0.063,0-0.103
		c0-0.557,0.112-1.118,0.337-1.685c0.371-0.938,0.972-1.66,1.802-2.168c1.143-0.713,2.471-1.069,3.984-1.069h0.439
		c0.078,0,0.654,0.039,1.729,0.117l0.791,0.088c0.439,0.049,0.693,0.073,0.762,0.073l3.179-0.176
		C30.735,25.462,31.055,25.558,31.235,25.748z M26.248,39.745c-0.469-0.078-0.879-0.117-1.23-0.117L24.9,39.613l-0.103-0.015
		l-0.659-0.044c-0.078-0.01-0.146-0.015-0.205-0.015l-0.483-0.044h-0.322l-0.103,0.015l-0.308,0.015l-0.396,0.044
		c-0.469,0-0.894,0.208-1.274,0.623s-0.571,0.911-0.571,1.487v0.308c0,0.625,0.242,1.106,0.725,1.443s1.096,0.505,1.838,0.505h0.645
		c1.25,0,2.344-0.342,3.281-1.025c0.586-0.43,0.879-1.035,0.879-1.816L27.83,40.99c0-0.303-0.132-0.586-0.396-0.85
		S26.775,39.745,26.248,39.745z M25.442,29.608l-0.029-0.498c0-0.752-0.203-1.389-0.608-1.912s-0.881-0.784-1.428-0.784h-0.176
		c-0.498,0-0.938,0.286-1.318,0.857s-0.571,1.248-0.571,2.029v0.747c0,0.938,0.222,1.724,0.667,2.358s0.93,0.952,1.458,0.952h0.103
		c0.498,0,0.935-0.242,1.311-0.725s0.564-1.042,0.564-1.677l0.015-0.088l0.015-0.103l0.015-0.308V29.71L25.442,29.608z"/>
	<path style="fill:#2A3137;" d="M40.632,25.111h0.732c0.869,0,1.763,0.205,2.681,0.615c1.748,0.781,2.949,2.051,3.604,3.809
		c0.332,0.908,0.498,1.836,0.498,2.783v0.264c0,1.016-0.205,2.012-0.615,2.988s-0.962,1.787-1.655,2.432
		c-1.445,1.309-3.105,1.963-4.98,1.963c-0.146,0-0.293-0.005-0.439-0.015c-0.938,0-1.858-0.188-2.761-0.564
		s-1.643-0.876-2.219-1.501c-1.24-1.367-1.86-3.081-1.86-5.142v-0.249l0.015-0.249c0.01-0.908,0.181-1.807,0.513-2.695
		c0.645-1.699,1.826-2.954,3.545-3.765C38.655,25.335,39.636,25.111,40.632,25.111z M40.618,27.059h-0.278
		c-0.84,0-1.526,0.474-2.058,1.421s-0.798,2.08-0.798,3.398v0.82c0,1.484,0.308,2.739,0.923,3.765s1.353,1.538,2.212,1.538h0.278
		c0.752,0,1.409-0.383,1.97-1.15s0.842-1.79,0.842-3.069l0.029-0.308l0.015-0.615v-0.161l-0.015-0.161V32.23
		c-0.02-0.215-0.029-0.371-0.029-0.469c0-1.299-0.308-2.407-0.923-3.325S41.448,27.059,40.618,27.059z"/>
	<path style="fill:#2A3137;" d="M57.521,25.111h0.732c0.869,0,1.764,0.205,2.682,0.615c1.748,0.781,2.949,2.051,3.604,3.809
		c0.332,0.908,0.498,1.836,0.498,2.783v0.264c0,1.016-0.205,2.012-0.615,2.988s-0.963,1.787-1.656,2.432
		c-1.445,1.309-3.105,1.963-4.98,1.963c-0.146,0-0.293-0.005-0.439-0.015c-0.938,0-1.857-0.188-2.76-0.564
		c-0.904-0.376-1.645-0.876-2.221-1.501c-1.24-1.367-1.86-3.081-1.86-5.142v-0.249l0.015-0.249c0.01-0.908,0.181-1.807,0.513-2.695
		c0.645-1.699,1.826-2.954,3.545-3.765C55.545,25.335,56.525,25.111,57.521,25.111z M57.508,27.059h-0.279
		c-0.84,0-1.525,0.474-2.057,1.421c-0.533,0.947-0.799,2.08-0.799,3.398v0.82c0,1.484,0.307,2.739,0.922,3.765
		s1.354,1.538,2.213,1.538h0.277c0.752,0,1.408-0.383,1.971-1.15c0.561-0.767,0.842-1.79,0.842-3.069l0.029-0.308l0.016-0.615
		v-0.161l-0.016-0.161V32.23c-0.02-0.215-0.029-0.371-0.029-0.469c0-1.299-0.307-2.407-0.922-3.325S58.338,27.059,57.508,27.059z"/>
	<path style="fill:#2A3137;" d="M76.477,25.594c0.459,0,0.688-0.527,0.688-1.582c0-1.719-0.371-2.905-1.113-3.56
		c-0.557-0.479-0.835-0.796-0.835-0.952c0-0.312,0.459-0.615,1.377-0.908s1.753-0.439,2.505-0.439s1.242,0.083,1.472,0.249
		s0.386,0.527,0.469,1.084s0.125,3.264,0.125,8.123s0.054,7.603,0.161,8.232s0.308,1.125,0.601,1.487
		c0.02,0.029,0.205,0.171,0.557,0.425s0.527,0.464,0.527,0.63v0.249c0,0.146-0.098,0.303-0.293,0.469
		c-0.586,0.488-1.851,0.732-3.794,0.732c-0.508,0-0.898-0.176-1.172-0.527s-0.42-0.527-0.439-0.527
		c-0.186,0.01-0.503,0.132-0.952,0.366c-1.045,0.566-2.012,0.85-2.9,0.85c-0.02,0-0.034,0-0.044,0h-0.381
		c-0.713,0-1.421-0.166-2.124-0.498c-1.455-0.684-2.48-1.855-3.076-3.516c-0.303-0.859-0.454-1.724-0.454-2.593v-0.396
		c0-0.029,0-0.054,0-0.073c0-1.123,0.2-2.178,0.601-3.164c1.143-2.842,3.232-4.263,6.27-4.263c0.752,0,1.196,0.005,1.333,0.015
		l0.308,0.029C76.223,25.575,76.418,25.594,76.477,25.594z M74.353,37.796h0.249c0.889,0,1.548-0.337,1.978-1.011
		c0.293-0.459,0.439-1.489,0.439-3.091v-2.036c0-1.689-0.174-2.844-0.521-3.464s-1.018-0.93-2.014-0.93h-0.132
		c-0.898,0-1.655,0.461-2.271,1.384s-0.923,2.058-0.923,3.406v0.952c0,1.25,0.239,2.275,0.718,3.076
		C72.561,37.225,73.386,37.796,74.353,37.796z"/>
	<path style="fill:#2A3137;" d="M22.666,61.653c0.801,0,1.345,0.171,1.633,0.513s0.432,0.752,0.432,1.23s-0.129,0.906-0.388,1.281
		c-0.259,0.377-0.552,0.564-0.879,0.564s-0.779-0.127-1.355-0.381s-1.021-0.381-1.333-0.381s-0.664,0.166-1.055,0.498
		s-0.662,0.806-0.813,1.421s-0.227,1.58-0.227,2.894s0.093,2.163,0.278,2.549s0.566,0.891,1.143,1.516s0.864,1.138,0.864,1.538
		c0,0.469-1.133,0.703-3.398,0.703h-1.26l-0.308-0.015c-0.205-0.01-0.415-0.015-0.63-0.015l-0.308-0.015
		c-0.205-0.01-0.42-0.015-0.645-0.015c-1.025,0-1.538-0.22-1.538-0.659s0.256-0.884,0.769-1.333s0.825-0.854,0.938-1.216
		s0.168-1.602,0.168-3.721s-0.066-3.389-0.198-3.809s-0.449-0.778-0.952-1.076s-0.754-0.608-0.754-0.931
		c0-0.449,0.337-0.767,1.011-0.952c1.016-0.273,1.934-0.41,2.754-0.41s1.372,0.093,1.655,0.278c0.117,0.078,0.251,0.327,0.403,0.747
		s0.33,0.63,0.535,0.63c0.088,0,0.273-0.088,0.557-0.264C20.898,62.044,21.865,61.653,22.666,61.653z"/>
	<path style="fill:#2A3137;" d="M30.635,70.091c0,0.977,0.459,1.821,1.377,2.534c0.684,0.537,1.553,0.806,2.607,0.806
		c0.479,0,1.189-0.137,2.131-0.41s1.487-0.41,1.633-0.41c0.439,0,0.659,0.239,0.659,0.718c0,0.566-0.583,1.141-1.75,1.721
		c-1.167,0.581-2.375,0.872-3.625,0.872h-0.645c-0.02,0-0.044,0-0.073,0c-0.791,0-1.597-0.161-2.417-0.483
		c-1.621-0.625-2.773-1.719-3.457-3.281c-0.469-1.074-0.703-2.095-0.703-3.062v-0.674c0-0.986,0.171-1.938,0.513-2.856
		c0.645-1.729,1.782-2.974,3.413-3.735c0.977-0.449,2.002-0.674,3.076-0.674h0.337c1.592,0,2.935,0.493,4.028,1.479
		c0.576,0.527,1.018,1.162,1.326,1.904s0.461,1.497,0.461,2.264s-0.376,1.271-1.128,1.516c-1.055,0.342-3.008,0.513-5.859,0.513
		c-0.762,0-1.27,0.095-1.523,0.286C30.762,69.307,30.635,69.632,30.635,70.091z M33.491,63.118h-0.425
		c-0.615,0-1.204,0.32-1.765,0.96s-0.842,1.403-0.842,2.292v0.234c0,0.361,0.2,0.542,0.601,0.542l0.146,0.029h1.04l0.073-0.015
		l2.446-0.146c0.146-0.029,0.244-0.044,0.293-0.044c0.498,0,0.747-0.259,0.747-0.776v-0.483c0-0.654-0.234-1.25-0.703-1.787
		S34.097,63.118,33.491,63.118z"/>
	<path style="fill:#2A3137;" d="M56.108,74.266v0.22c0,0.332-0.366,0.643-1.099,0.931c-0.732,0.287-1.602,0.432-2.607,0.432
		c-0.615,0-1.147-0.278-1.597-0.835c-0.244-0.312-0.435-0.469-0.571-0.469c-0.137-0.01-0.371,0.103-0.703,0.337
		c-1.113,0.762-2.314,1.143-3.604,1.143c-0.01,0-0.02,0.005-0.029,0.015c-1.27,0-2.285-0.327-3.047-0.981s-1.147-1.572-1.157-2.754
		c0-2.539,1.953-4.136,5.859-4.79c0.938-0.146,1.499-0.259,1.685-0.337c0.566-0.234,0.85-0.757,0.85-1.567s-0.183-1.394-0.549-1.751
		c-0.366-0.355-0.793-0.534-1.282-0.534c-0.771,0-1.47,0.413-2.095,1.237c-0.625,0.826-1.353,1.238-2.183,1.238
		c-0.488,0-0.857-0.134-1.106-0.402S42.5,64.852,42.5,64.568c0-0.859,0.449-1.543,1.348-2.051c1.494-0.84,3.076-1.26,4.746-1.26
		h0.762c0.84,0,1.643,0.179,2.41,0.535c0.766,0.356,1.359,0.9,1.779,1.633s0.63,2.368,0.63,4.907s0.081,4.002,0.241,4.388
		c0.162,0.386,0.484,0.669,0.967,0.85C55.867,73.751,56.108,73.982,56.108,74.266z M50.161,69.622c0-0.439-0.137-0.659-0.41-0.659
		H49.37c-0.244,0.049-0.43,0.073-0.557,0.073c-0.889,0-1.636,0.259-2.241,0.776s-0.908,1.104-0.908,1.758v0.337
		c0,0.498,0.156,0.928,0.469,1.289s0.693,0.542,1.143,0.542h0.469c0.645,0,1.196-0.2,1.655-0.601s0.688-0.791,0.688-1.172
		c0.039-0.195,0.059-0.322,0.059-0.381l0.029-0.234v-0.63l0.015-0.234v-0.645C50.171,69.744,50.161,69.671,50.161,69.622z"/>
	<path style="fill:#2A3137;" d="M67.271,61.595c0.459,0,0.688-0.527,0.688-1.582c0-1.719-0.371-2.905-1.113-3.56
		c-0.557-0.479-0.835-0.796-0.835-0.952c0-0.312,0.459-0.615,1.377-0.908s1.753-0.439,2.505-0.439s1.242,0.083,1.472,0.249
		s0.386,0.527,0.469,1.084s0.125,3.265,0.125,8.123s0.054,7.602,0.161,8.232c0.107,0.629,0.308,1.125,0.601,1.486
		c0.02,0.029,0.205,0.171,0.557,0.425s0.527,0.464,0.527,0.63v0.249c0,0.146-0.098,0.303-0.293,0.469
		c-0.586,0.488-1.851,0.732-3.794,0.732c-0.508,0-0.898-0.176-1.172-0.527s-0.42-0.527-0.439-0.527
		c-0.186,0.01-0.503,0.132-0.952,0.366c-1.045,0.566-2.012,0.85-2.9,0.85c-0.02,0-0.034,0-0.044,0h-0.381
		c-0.713,0-1.421-0.166-2.124-0.498c-1.455-0.684-2.48-1.855-3.076-3.516c-0.303-0.859-0.454-1.724-0.454-2.593v-0.396
		c0-0.029,0-0.054,0-0.073c0-1.123,0.2-2.178,0.601-3.164c1.143-2.842,3.232-4.263,6.27-4.263c0.752,0,1.196,0.005,1.333,0.015
		l0.308,0.029C67.017,61.575,67.212,61.595,67.271,61.595z M65.146,73.797h0.249c0.889,0,1.548-0.337,1.978-1.011
		c0.293-0.459,0.439-1.489,0.439-3.091v-2.036c0-1.689-0.174-2.844-0.521-3.464s-1.018-0.931-2.014-0.931h-0.132
		c-0.898,0-1.655,0.462-2.271,1.384c-0.615,0.924-0.923,2.059-0.923,3.406v0.952c0,1.25,0.239,2.275,0.718,3.076
		C63.354,73.226,64.18,73.797,65.146,73.797z"/>
	<path style="fill:#2A3137;" d="M86.475,63.426c0,0.82-0.059,1.362-0.176,1.626s-0.347,0.396-0.688,0.396
		c-0.547,0-1.135-0.396-1.766-1.187c-0.629-0.791-1.423-1.187-2.38-1.187c-0.547,0-0.981,0.142-1.304,0.425
		s-0.483,0.596-0.483,0.938c0,0.586,0.283,1.074,0.85,1.465c0.273,0.186,1.149,0.589,2.63,1.208c1.479,0.621,2.538,1.26,3.178,1.92
		c0.64,0.658,0.96,1.555,0.96,2.688s-0.483,2.119-1.45,2.959s-2.207,1.26-3.721,1.26h-0.776c-1.895,0-3.315-0.225-4.263-0.674
		c-0.664-0.312-0.996-1.055-0.996-2.227s0.22-1.758,0.659-1.758c0.557,0,1.247,0.454,2.073,1.362
		c0.824,0.908,1.721,1.362,2.688,1.362c0.586,0,1.081-0.125,1.486-0.373c0.405-0.25,0.608-0.64,0.608-1.172s-0.283-1.009-0.85-1.429
		c-0.303-0.225-1.12-0.622-2.454-1.194c-1.332-0.57-2.282-1.125-2.849-1.662c-0.85-0.801-1.274-1.784-1.274-2.951
		s0.498-2.134,1.494-2.9s2.158-1.15,3.486-1.15h0.396c2.09,0,3.511,0.215,4.263,0.645C86.255,62.068,86.475,62.605,86.475,63.426z"
		/>
</g>
</svg>
